<mxfile host="65bd71144e">
    <diagram id="q9AueTliSKC_COEnN2KO" name="Page-1">
        <mxGraphModel dx="719" dy="550" grid="1" gridSize="10" guides="1" tooltips="1" connect="1" arrows="1" fold="1" page="1" pageScale="1" pageWidth="850" pageHeight="1100" math="0" shadow="0">
            <root>
                <mxCell id="0"/>
                <mxCell id="1" parent="0"/>
                <mxCell id="8" value="computer" style="rounded=1;whiteSpace=wrap;html=1;fillColor=#dae8fc;strokeColor=#6c8ebf;verticalAlign=bottom;imageWidth=8;movable=1;resizable=1;rotatable=1;deletable=1;editable=1;connectable=1;arcSize=4;" parent="1" vertex="1">
                    <mxGeometry x="30" y="300" width="620" height="400" as="geometry"/>
                </mxCell>
                <mxCell id="3" value="docker host" style="rounded=1;whiteSpace=wrap;html=1;verticalAlign=bottom;movable=1;resizable=1;rotatable=1;deletable=1;editable=1;connectable=1;arcSize=4;" parent="1" vertex="1">
                    <mxGeometry x="40" y="310" width="400" height="270" as="geometry"/>
                </mxCell>
                <mxCell id="4" value="appium-server&lt;br style=&quot;border-color: var(--border-color);&quot;&gt;(docker)" style="rounded=1;whiteSpace=wrap;html=1;arcSize=4;" parent="1" vertex="1">
                    <mxGeometry x="180" y="400" width="120" height="60" as="geometry"/>
                </mxCell>
                <mxCell id="5" value="stub /&amp;nbsp;&lt;br&gt;Other test facilities&lt;br&gt;(docker)" style="rounded=1;whiteSpace=wrap;html=1;arcSize=4;" parent="1" vertex="1">
                    <mxGeometry x="310" y="400" width="120" height="60" as="geometry"/>
                </mxCell>
                <mxCell id="6" value="Android / Mobile&lt;br&gt;(hardware)&lt;br&gt;" style="rounded=1;whiteSpace=wrap;html=1;arcSize=4;" parent="1" vertex="1">
                    <mxGeometry x="50" y="220" width="120" height="60" as="geometry"/>
                </mxCell>
                <mxCell id="7" value="USB" style="endArrow=classic;html=1;exitX=0.5;exitY=0;exitDx=0;exitDy=0;entryX=0.5;entryY=1;entryDx=0;entryDy=0;fillColor=#f5f5f5;strokeColor=default;arcSize=4;" parent="1" source="2" target="6" edge="1">
                    <mxGeometry width="50" height="50" relative="1" as="geometry">
                        <mxPoint x="260" y="420" as="sourcePoint"/>
                        <mxPoint x="310" y="370" as="targetPoint"/>
                    </mxGeometry>
                </mxCell>
                <mxCell id="9" value="android emulator&lt;br&gt;(docker)" style="rounded=1;whiteSpace=wrap;html=1;arcSize=4;" parent="1" vertex="1">
                    <mxGeometry x="180" y="320" width="120" height="60" as="geometry"/>
                </mxCell>
                <mxCell id="10" value="" style="endArrow=classic;html=1;exitX=0.5;exitY=0;exitDx=0;exitDy=0;entryX=0.5;entryY=1;entryDx=0;entryDy=0;arcSize=4;" parent="1" source="4" target="9" edge="1">
                    <mxGeometry width="50" height="50" relative="1" as="geometry">
                        <mxPoint x="119.99999999999989" y="410" as="sourcePoint"/>
                        <mxPoint x="119.99999999999989" y="300" as="targetPoint"/>
                        <Array as="points">
                            <mxPoint x="240" y="390"/>
                        </Array>
                    </mxGeometry>
                </mxCell>
                <mxCell id="2" value="appium-server&lt;br&gt;(docker)" style="rounded=1;whiteSpace=wrap;html=1;arcSize=4;" parent="1" vertex="1">
                    <mxGeometry x="50" y="400" width="120" height="60" as="geometry"/>
                </mxCell>
                <mxCell id="12" value="selenium-grid&lt;br&gt;(docker)" style="rounded=1;whiteSpace=wrap;html=1;arcSize=4;" parent="1" vertex="1">
                    <mxGeometry x="50" y="500" width="120" height="60" as="geometry"/>
                </mxCell>
                <mxCell id="13" value="" style="endArrow=classic;html=1;entryX=0.371;entryY=1.03;entryDx=0;entryDy=0;entryPerimeter=0;exitX=0.214;exitY=-0.049;exitDx=0;exitDy=0;exitPerimeter=0;arcSize=4;" parent="1" source="12" target="2" edge="1">
                    <mxGeometry width="50" height="50" relative="1" as="geometry">
                        <mxPoint x="200" y="600" as="sourcePoint"/>
                        <mxPoint x="250" y="550" as="targetPoint"/>
                    </mxGeometry>
                </mxCell>
                <mxCell id="14" value="" style="endArrow=classic;html=1;entryX=0.464;entryY=1.018;entryDx=0;entryDy=0;entryPerimeter=0;arcSize=4;" parent="1" target="4" edge="1">
                    <mxGeometry width="50" height="50" relative="1" as="geometry">
                        <mxPoint x="120" y="500" as="sourcePoint"/>
                        <mxPoint x="104.51999999999998" y="471.79999999999995" as="targetPoint"/>
                    </mxGeometry>
                </mxCell>
                <mxCell id="15" value="" style="endArrow=classic;html=1;entryX=0.044;entryY=0.971;entryDx=0;entryDy=0;entryPerimeter=0;arcSize=4;" parent="1" source="12" target="5" edge="1">
                    <mxGeometry width="50" height="50" relative="1" as="geometry">
                        <mxPoint x="130" y="510" as="sourcePoint"/>
                        <mxPoint x="245.67999999999984" y="471.08000000000004" as="targetPoint"/>
                    </mxGeometry>
                </mxCell>
                <mxCell id="19" value="" style="group;arcSize=4;" parent="1" vertex="1" connectable="0">
                    <mxGeometry x="40" y="600" width="140" height="80" as="geometry"/>
                </mxCell>
                <mxCell id="16" value="selenium-grid" style="rounded=1;whiteSpace=wrap;html=1;arcSize=4;" parent="19" vertex="1">
                    <mxGeometry width="120" height="60" as="geometry"/>
                </mxCell>
                <mxCell id="17" value="selenium-grid" style="rounded=1;whiteSpace=wrap;html=1;arcSize=4;" parent="19" vertex="1">
                    <mxGeometry x="10" y="10" width="120" height="60" as="geometry"/>
                </mxCell>
                <mxCell id="18" value="test script &lt;br&gt;using appium" style="rounded=1;whiteSpace=wrap;html=1;arcSize=4;" parent="19" vertex="1">
                    <mxGeometry x="20" y="20" width="120" height="60" as="geometry"/>
                </mxCell>
                <mxCell id="20" value="" style="endArrow=classic;html=1;arcSize=4;" parent="1" edge="1">
                    <mxGeometry width="50" height="50" relative="1" as="geometry">
                        <mxPoint x="110" y="600" as="sourcePoint"/>
                        <mxPoint x="110" y="560" as="targetPoint"/>
                    </mxGeometry>
                </mxCell>
                <mxCell id="28" style="edgeStyle=none;html=1;exitX=0.5;exitY=0;exitDx=0;exitDy=0;entryX=0.5;entryY=1;entryDx=0;entryDy=0;" edge="1" parent="1" source="24" target="25">
                    <mxGeometry relative="1" as="geometry"/>
                </mxCell>
                <mxCell id="24" value="test script" style="rounded=1;whiteSpace=wrap;html=1;arcSize=4;" vertex="1" parent="1">
                    <mxGeometry x="510" y="610" width="120" height="60" as="geometry"/>
                </mxCell>
                <mxCell id="27" style="edgeStyle=none;html=1;exitX=0.5;exitY=0;exitDx=0;exitDy=0;entryX=0.5;entryY=1;entryDx=0;entryDy=0;" edge="1" parent="1" source="25" target="26">
                    <mxGeometry relative="1" as="geometry"/>
                </mxCell>
                <mxCell id="25" value="appium server" style="rounded=1;whiteSpace=wrap;html=1;arcSize=4;" vertex="1" parent="1">
                    <mxGeometry x="510" y="490" width="120" height="60" as="geometry"/>
                </mxCell>
                <mxCell id="26" value="android emulator" style="rounded=1;whiteSpace=wrap;html=1;arcSize=4;" vertex="1" parent="1">
                    <mxGeometry x="510" y="370" width="120" height="60" as="geometry"/>
                </mxCell>
                <mxCell id="29" value="" style="endArrow=none;dashed=1;html=1;" edge="1" parent="1">
                    <mxGeometry width="50" height="50" relative="1" as="geometry">
                        <mxPoint x="470" y="780" as="sourcePoint"/>
                        <mxPoint x="470" y="220" as="targetPoint"/>
                    </mxGeometry>
                </mxCell>
                <mxCell id="30" value="standalone test using appium" style="text;html=1;strokeColor=none;fillColor=none;align=center;verticalAlign=middle;whiteSpace=wrap;rounded=0;" vertex="1" parent="1">
                    <mxGeometry x="520" y="720" width="100" height="40" as="geometry"/>
                </mxCell>
                <mxCell id="32" value="appium test with&amp;nbsp;&lt;br&gt;docker" style="text;html=1;strokeColor=none;fillColor=none;align=center;verticalAlign=middle;whiteSpace=wrap;rounded=0;" vertex="1" parent="1">
                    <mxGeometry x="210" y="720" width="100" height="40" as="geometry"/>
                </mxCell>
            </root>
        </mxGraphModel>
    </diagram>
</mxfile>